<svg xmlns="http://www.w3.org/2000/svg" viewBox="0 0 530 150" width="530" height="150">
  <g transform="translate(-1338,-458)">
    <path d="m 0,0 -7.093,-7.096 h 6.121 l 4.033,4.034 4.034,-4.034 h 6.123 L 6.122,0 Z" fill="#ffffff" transform="matrix(1.3333333,0,0,-1.3333333,1464.3243,470.71333)"/>
    <path d="M 0,0 H 3.71 L 9.08,5.295 H 3.319 Z" fill="#ffffff" transform="matrix(1.3333333,0,0,-1.3333333,1475.862,470.71333)"/>
    <path d="m 0,0 -7.093,-7.096 h 6.121 l 4.033,4.034 4.034,-4.034 h 6.123 L 6.122,0 Z" fill="#ffffff" transform="matrix(1.3333333,0,0,-1.3333333,1709.8972,470.71333)"/>
    <path d="m 0,0 h -3.71 l -5.371,5.295 h 5.762 z" fill="#ffffff" transform="matrix(1.3333333,0,0,-1.3333333,1729.0677,470.71333)"/>
    <path d="m 0,0 c 15.842,36.561 64.036,27.427 98.845,17.145 39.197,-11.58 73.309,-32.98 117.124,-22.791 15.943,3.708 30.257,11.759 36.497,24.866 8.774,18.427 -2.003,31.577 -17.671,43.878 C 286.01,45.879 277.392,4.52 230.887,-12.806 170.191,-35.418 116.957,3.479 71.049,13.787 47.842,18.999 20.982,19.398 0,0" fill="#ffffff" transform="matrix(1.3333333,0,0,-1.3333333,1500.8476,576.66907)"/>
    <path d="m 0,0 c -0.259,1.672 2.198,0.671 3.322,0.491 2.884,-0.463 5.667,-1.595 8.441,-2.055 28.664,-4.757 91.52,-5.832 86.531,30.397 1.738,-0.354 2.839,-3.761 3.2,-5.009 2.033,-7.007 2.05,-12.338 -2.309,-18.72 C 80.58,-22.141 27.455,-11.188 0,0" fill="#ffffff" transform="matrix(1.3333333,0,0,-1.3333333,1685.776,558.62347)"/>
    <path d="m 0,0 c -1.312,-1.287 -2.931,-1.933 -4.854,-1.933 h -9.879 v 13.208 h 9.677 c 1.971,0 3.635,-0.641 4.989,-1.916 C 1.286,8.081 1.966,6.501 1.966,4.623 1.966,2.829 1.312,1.291 0,0 m -14.733,29.316 h 8.668 c 1.634,0 3.017,-0.515 4.149,-1.546 1.132,-1.032 1.697,-2.306 1.697,-3.832 0,-1.542 -0.549,-2.871 -1.646,-3.978 -1.099,-1.11 -2.432,-1.664 -3.999,-1.664 h -8.869 z M 3.479,15.408 c 1.79,0.918 3.177,2.226 4.162,3.928 0.989,1.702 1.48,3.542 1.48,5.512 0,3.337 -1.25,6.153 -3.748,8.45 -2.494,2.297 -5.516,3.441 -9.054,3.441 H -24.24 V -9.355 h 20.928 c 4.347,0 7.897,1.236 10.651,3.713 2.759,2.473 4.133,5.659 4.133,9.557 0,2.712 -0.721,5.084 -2.167,7.121 -1.442,2.042 -3.387,3.496 -5.826,4.372" fill="#ffffff" transform="matrix(1.3333333,0,0,-1.3333333,1411.9583,537.71067)"/>
    <path d="m 0,0 c -2.921,-2.935 -6.468,-4.401 -10.634,-4.401 -4.12,0 -7.637,1.466 -10.55,4.401 -2.913,2.934 -4.368,6.459 -4.368,10.584 0,4.12 1.455,7.653 4.368,10.601 2.913,2.942 6.43,4.418 10.55,4.418 4.188,0 7.738,-1.476 10.652,-4.418 C 2.931,18.237 4.385,14.704 4.385,10.584 4.385,6.459 2.922,2.934 0,0 m 6.987,27.484 c -4.87,4.704 -10.747,7.055 -17.621,7.055 -6.832,0 -12.687,-2.351 -17.571,-7.055 -4.883,-4.707 -7.327,-10.34 -7.327,-16.9 0,-6.564 2.444,-12.198 7.327,-16.9 4.884,-4.704 10.739,-7.055 17.571,-7.055 6.874,0 12.751,2.351 17.621,7.055 4.871,4.702 7.311,10.336 7.311,16.9 0,6.56 -2.44,12.193 -7.311,16.9" fill="#ffffff" transform="matrix(1.3333333,0,0,-1.3333333,1481.7839,533.5636)"/>
    <path d="m 0,0 18.803,-19.979 c 3.375,0.409 6.876,0.675 10.61,0.675 1.278,0 2.599,-0.051 3.914,-0.097 V 16.092 H 24.021 V -13.84 L -4.401,16.297 h -4.87 v -46.3 h 1.444 c 2.381,1.821 5.021,3.359 7.827,4.715 z" fill="#ffffff" transform="matrix(1.3333333,0,0,-1.3333333,1524.6784,510.1808)"/>
    <path d="m 0,0 v 13.208 h 9.678 c 1.97,0 3.635,-0.642 4.988,-1.916 1.354,-1.278 2.033,-2.858 2.033,-4.736 0,-1.794 -0.654,-3.332 -1.966,-4.623 C 13.421,0.646 11.803,0 9.879,0 Z m 0,31.249 h 8.668 c 1.635,0 3.018,-0.516 4.149,-1.547 1.132,-1.031 1.698,-2.306 1.698,-3.831 0,-1.543 -0.549,-2.871 -1.647,-3.978 C 11.77,20.782 10.437,20.229 8.869,20.229 H 0 Z M 15.429,-6.97 c 2.562,0.547 4.799,1.6 6.643,3.261 2.759,2.473 4.133,5.658 4.133,9.557 0,2.712 -0.721,5.084 -2.167,7.121 -1.441,2.042 -3.387,3.496 -5.826,4.372 1.79,0.918 3.178,2.225 4.162,3.928 0.989,1.702 1.48,3.542 1.48,5.511 0,3.337 -1.25,6.154 -3.748,8.45 -2.494,2.297 -5.515,3.442 -9.053,3.442 H -9.507 V -0.355 c 6.786,-1.442 14.086,-3.321 22.038,-5.67 0.98,-0.289 1.923,-0.643 2.898,-0.945" fill="#ffffff" transform="matrix(1.3333333,0,0,-1.3333333,1617.5533,540.28747)"/>
    <path d="m 442.402,433.456 h -9.908 v -46.095 h 9.908 z" fill="#ffffff" transform="matrix(1.3333333,0,0,-1.3333333,1086.6667,1066.6667)"/>
    <path d="M 0,0 H -23.586 V 10.986 H -1.374 V 18.85 H -23.586 V 29.434 H -0.67 v 8.328 H -33.495 V -8.333 H 0 Z" fill="#ffffff" transform="matrix(1.3333333,0,0,-1.3333333,1736.1355,539.074)"/>
    <path d="M 0,0 V 38.942 H -9.305 V 9.011 l -28.424,30.136 h -4.87 V -7.152 h 9.272 V 22.851 L -6.798,-5.341 c 2.724,1.535 5.01,3.263 6.712,5.217 C -0.051,-0.085 -0.033,-0.039 0,0" fill="#ffffff" transform="matrix(1.3333333,0,0,-1.3333333,1806.0065,540.64813)"/>
    <path d="M 0,0 C 0.278,-1.68 -2.395,-0.666 -3.628,-0.491 -9.857,0.39 -16.304,2.393 -22.405,3.353 -47.871,7.358 -73.833,9.068 -97.789,0.02 -72.325,25.826 -31.019,10.567 0,0" fill="#ffffff" transform="matrix(1.3333333,0,0,-1.3333333,1639.7916,580.86693)"/>
  </g>
</svg>
